<?xml version="1.0" standalone="no"?>
<!DOCTYPE svg PUBLIC "-//W3C//DTD SVG 20010904//EN"
 "http://www.w3.org/TR/2001/REC-SVG-20010904/DTD/svg10.dtd">
<svg version="1.0" xmlns="http://www.w3.org/2000/svg"
 width="300.000000pt" height="300.000000pt" viewBox="0 0 300.000000 300.000000"
 preserveAspectRatio="xMidYMid meet">
<metadata>
Created by potrace 1.14, written by Peter Selinger 2001-2017
</metadata>
<g transform="translate(0.000000,300.000000) scale(0.100000,-0.100000)"
fill="#000000" stroke="none">
<path d="M1275 2730 c-490 -96 -863 -445 -986 -922 -29 -114 -34 -162 -34
-313 0 -143 6 -191 36 -310 96 -379 380 -700 747 -846 80 -32 190 -63 267 -75
65 -10 316 -11 380 -1 469 73 857 402 1004 853 16 49 32 108 35 130 4 21 11
66 16 99 14 86 12 170 -4 210 -17 39 -80 77 -117 70 -88 -17 -114 -55 -123
-180 -13 -194 -57 -329 -162 -491 -94 -147 -227 -267 -382 -343 -167 -83 -294
-111 -482 -107 -124 3 -171 11 -285 49 -334 110 -591 400 -664 747 -26 125
-22 316 8 440 60 237 221 463 421 592 183 118 361 169 570 163 69 -1 136 -6
150 -9 14 -3 39 -8 55 -12 46 -9 113 -32 185 -64 117 -51 194 -20 215 88 6 33
-20 87 -54 111 -43 31 -195 87 -302 112 -128 30 -365 34 -494 9z"/>
<path d="M2417 2736 c-55 -21 -103 -61 -134 -114 -24 -40 -28 -58 -28 -122 0
-64 4 -82 27 -121 l28 -47 -56 -158 c-31 -88 -74 -211 -96 -274 -22 -63 -44
-124 -48 -135 -5 -11 -18 -49 -30 -85 -12 -36 -26 -74 -30 -85 -5 -11 -28 -76
-52 -145 l-43 -125 -144 -116 c-80 -63 -154 -127 -164 -141 -52 -70 -4 -176
87 -192 46 -8 81 13 256 154 178 144 182 148 198 194 6 17 63 182 127 366 65
184 140 400 167 480 61 180 64 187 97 193 41 9 107 62 136 111 69 118 28 272
-90 342 -56 32 -150 42 -208 20z"/>
<path d="M1417 1736 c-55 -21 -103 -61 -134 -114 -24 -40 -28 -58 -28 -123 0
-67 4 -81 30 -125 99 -159 326 -164 425 -8 101 160 -4 368 -192 380 -39 3 -77
-1 -101 -10z"/>
</g>
</svg>
